<mxfile host="app.diagrams.net" modified="2023-05-03T12:48:25.792Z" agent="Mozilla/5.0 (Windows NT 10.0; Win64; x64) AppleWebKit/537.36 (KHTML, like Gecko) Chrome/112.0.0.0 Safari/537.36" version="21.2.7" etag="7QtMjrgX_M6lAZ2wvSjK" type="github">
  <diagram name="PÃ¡gina-1" id="89v_Fbu40_JFCPkqtwGd">
    <mxGraphModel>
      <root>
        <mxCell id="0" />
        <mxCell id="1" parent="0" />
      </root>
    </mxGraphModel>
  </diagram>
</mxfile>
